<?xml version="1.0" encoding="utf-8"?>
<!-- Generator: Adobe Illustrator 16.0.0, SVG Export Plug-In . SVG Version: 6.00 Build 0)  -->
<!DOCTYPE svg PUBLIC "-//W3C//DTD SVG 1.1//EN" "http://www.w3.org/Graphics/SVG/1.1/DTD/svg11.dtd" [
	<!ENTITY ns_flows "http://ns.adobe.com/Flows/1.0/">
	<!ENTITY ns_extend "http://ns.adobe.com/Extensibility/1.0/">
	<!ENTITY ns_ai "http://ns.adobe.com/AdobeIllustrator/10.0/">
	<!ENTITY ns_graphs "http://ns.adobe.com/Graphs/1.0/">
]>
<svg version="1.1" id="Capa_1" xmlns:x="&ns_extend;" xmlns:i="&ns_ai;" xmlns:graph="&ns_graphs;"
	 xmlns="http://www.w3.org/2000/svg" xmlns:xlink="http://www.w3.org/1999/xlink" xmlns:a="http://ns.adobe.com/AdobeSVGViewerExtensions/3.0/"
	 x="0px" y="0px" width="171.701px" height="97.169px" viewBox="0 0 171.701 97.169" enable-background="new 0 0 171.701 97.169"
	 xml:space="preserve">
<g>
	<g>
		<path d="M50.175,8.68c0,3.226-2.9,8.326-8.7,15.298c2.085,1.435,3.128,2.688,3.128,3.764c0,0.717-0.342,1.157-1.026,1.319
			c-3.193,0.782-6.403,1.792-9.629,3.03c-4.789,4.692-9.515,8.585-14.174,11.682c-4.66,3.095-8.424,4.644-11.29,4.644
			c-1.205,0-2.265-0.628-3.177-1.882c-0.913-1.254-1.369-2.517-1.369-3.788c0-2.346,0.823-4.61,2.469-6.793
			c1.646-2.183,3.738-4.057,6.28-5.621c2.541-1.564,5.311-2.949,8.309-4.155c5.931-2.378,11.193-3.568,15.787-3.568
			c0.391,0,0.944,0.033,1.662,0.098c4.724-5.115,7.087-8.521,7.087-10.215c0-0.782-0.555-1.173-1.662-1.173
			c-1.531,0-3.706,0.498-6.524,1.491c-2.819,0.995-5.336,2.134-7.552,3.421c-2.216,1.288-3.323,2.29-3.323,3.006
			c0,0.229,0.357,0.342,1.075,0.342l3.813-0.489c0.88,0,1.319,0.293,1.319,0.88c0,0.652-0.677,1.19-2.028,1.613
			c-1.353,0.424-2.632,0.635-3.837,0.635c-2.574,0-4.814-0.611-6.721-1.833c-1.906-1.222-2.859-2.908-2.859-5.059
			c0-1.792,1.36-3.788,4.082-5.987c2.72-2.199,6.036-4.057,9.946-5.572s7.298-2.272,10.166-2.272
			C47.258,1.496,50.175,3.89,50.175,8.68z M11.661,45.19c0,0.098,0.064,0.147,0.195,0.147c0.749,0,2.338-0.888,4.766-2.664
			c2.427-1.776,5.221-4.065,8.382-6.867c-3.91,1.857-7.111,3.641-9.604,5.352C12.907,42.869,11.661,44.213,11.661,45.19z"/>
		<path d="M57.75,23.783c0,0.88,0.521,1.32,1.564,1.32c0.978,0,2.053-0.244,3.226-0.733s1.809-0.733,1.906-0.733
			s0.203,0.082,0.317,0.245s0.171,0.326,0.171,0.489c0,0.359-0.757,0.823-2.272,1.393c-1.515,0.571-2.615,0.855-3.299,0.855
			c-0.685,0-1.166-0.008-1.442-0.024c-0.277-0.016-0.497,0.155-0.659,0.513c-2.412,4.53-4.807,7.38-7.186,8.553
			c-1.043,0.521-2.143,0.782-3.299,0.782c-1.157,0-2.102-0.383-2.835-1.149c-0.733-0.765-1.1-1.979-1.1-3.641
			c0-2.313,0.758-4.473,2.272-6.476c1.516-2.004,3.233-3.511,5.157-4.521c1.922-1.01,3.665-1.516,5.229-1.516
			c2.639,0.293,3.959,1.092,3.959,2.395c0,0.359-0.091,0.676-0.269,0.953c-0.18,0.277-0.326,0.44-0.44,0.489
			s-0.253,0.09-0.415,0.122C57.946,23.196,57.75,23.425,57.75,23.783z M53.743,26.031c-1.043,0.782-2.062,1.776-3.055,2.981
			c-0.994,1.206-1.491,2.192-1.491,2.957c0,0.766,0.212,1.149,0.636,1.149c0.651,0,1.849-1.002,3.593-3.006
			c1.742-2.003,2.614-3.657,2.614-4.961c0-0.195-0.122-0.293-0.366-0.293S54.785,25.249,53.743,26.031z"/>
		<path d="M82.506,33.069c-1.157,0.88-2.541,1.728-4.154,2.542c-1.612,0.814-2.966,1.222-4.057,1.222
			c-1.092,0-1.964-0.326-2.614-0.978c-0.653-0.651-0.978-1.45-0.978-2.395c0-1.564,1.124-3.666,3.372-6.305
			c0.195-0.195,0.293-0.35,0.293-0.464c0-0.113-0.032-0.171-0.098-0.171s-0.302,0.073-0.709,0.22
			c-0.407,0.147-1.523,0.897-3.348,2.249c-1.825,1.353-3.601,2.786-5.327,4.301c-1.728,1.515-2.957,2.273-3.69,2.273
			s-1.271-0.31-1.613-0.929c-0.342-0.618-0.514-1.319-0.514-2.102c0-2.411,1.883-6.077,5.646-10.997
			c3.763-4.919,7.697-9.311,11.803-13.172c4.106-3.861,6.729-5.792,7.869-5.792c0.554,0,1.083,0.237,1.589,0.708
			c0.505,0.473,0.758,1.108,0.758,1.906c0,0.799-0.978,2.566-2.933,5.303c-1.955,2.737-4.139,5.621-6.55,8.651
			c-3.03,3.78-4.546,5.833-4.546,6.159c0,0.13,0.065,0.195,0.196,0.195c0.13,0,0.684-0.269,1.661-0.806
			c0.978-0.538,2.036-1.042,3.177-1.516c1.141-0.472,1.931-0.749,2.371-0.831c0.439-0.081,0.961-0.122,1.563-0.122
			c0.604,0,1.205,0.131,1.809,0.391c0.604,0.261,0.904,0.644,0.904,1.148c0,0.506-1.182,2.119-3.543,4.839
			c-2.363,2.721-3.544,4.269-3.544,4.643c0,0.375,0.162,0.562,0.489,0.562c0.684,0,2.02-0.717,4.007-2.15
			c0.75-0.521,1.189-0.814,1.32-0.88c0.13-0.065,0.276-0.097,0.439-0.097c0.456,0,0.685,0.228,0.685,0.684
			C84.242,31.62,83.664,32.189,82.506,33.069z"/>
		<path d="M96.999,33.412c0,0.163,0.113,0.277,0.342,0.342c0.228,0,1.018-0.464,2.37-1.394c1.352-0.928,2.118-1.441,2.298-1.539
			c0.178-0.098,0.349-0.146,0.513-0.146c0.456,0,0.684,0.219,0.684,0.66c0,0.44-1.147,1.41-3.445,2.908
			c-2.297,1.498-3.918,2.248-4.863,2.248c-0.391,0-0.806-0.163-1.246-0.489c-0.439-0.326-0.66-0.709-0.66-1.148
			c0-0.44,0.114-0.92,0.343-1.442c0.228-0.521,0.342-0.872,0.342-1.051c0-0.178-0.049-0.269-0.146-0.269s-0.195,0.033-0.293,0.098
			c-3.161,2.379-5.491,3.568-6.989,3.568c-0.848,0-1.516-0.31-2.005-0.928c-0.488-0.619-0.781-1.238-0.879-1.857l-0.099-0.929
			c0-1.075,0.416-2.321,1.247-3.739c0.831-1.417,1.922-2.769,3.274-4.057c1.352-1.287,3.014-2.37,4.985-3.25
			c1.972-0.879,3.983-1.319,6.036-1.319c1.107,0,2.143,0.293,3.104,0.879c0.961,0.587,1.442,1.271,1.442,2.053
			s-0.766,1.254-2.297,1.417c-1.142,0.261-3.023,1.197-5.646,2.81c-2.623,1.613-3.935,2.844-3.935,3.69
			c0,0.359,0.179,0.538,0.537,0.538c0.652,0,2.191-0.929,4.619-2.786c2.427-1.857,3.886-2.786,4.374-2.786
			c0.489,0,0.733,0.293,0.733,0.879c0,0.424-0.154,0.824-0.464,1.198c-0.311,0.375-0.53,0.644-0.66,0.807
			c-0.261,0.326-0.929,1.05-2.004,2.175C97.536,31.677,96.999,32.63,96.999,33.412z"/>
		<path d="M121.045,33.167l1.515-0.586c0.456,0,0.685,0.18,0.685,0.538c0,0.848-0.693,1.654-2.077,2.419
			c-1.386,0.766-2.706,1.149-3.96,1.149c-1.255,0-2.224-0.269-2.908-0.807c-0.684-0.538-1.026-1.36-1.026-2.468
			c0-1.107,0.636-2.476,1.907-4.106c0.162-0.162,0.244-0.301,0.244-0.415c0-0.114-0.066-0.171-0.196-0.171s-0.244,0.032-0.342,0.097
			c-0.098,0.066-0.799,0.506-2.102,1.32c-3.128,1.988-5.36,3.373-6.696,4.155c-0.554,0.293-1.075,0.44-1.564,0.44
			c-0.488,0-1.025-0.31-1.612-0.929c-0.587-0.619-0.88-1.238-0.88-1.857c0-1.303,1.841-3.69,5.523-7.161
			c3.682-3.47,6.174-5.205,7.478-5.205c0.489,0.065,0.912,0.342,1.271,0.831c0.357,0.489,0.537,1.067,0.537,1.735
			c0,0.668-0.244,1.393-0.733,2.175c-0.717,1.141-1.295,1.93-1.734,2.37c-0.44,0.44-0.66,0.717-0.66,0.831
			c0,0.115,0.049,0.171,0.146,0.171s0.236-0.056,0.415-0.171c0.18-0.114,1.728-1.124,4.644-3.03s4.553-2.965,4.912-3.177
			c0.358-0.211,0.749-0.318,1.173-0.318c0.423,0,0.978,0.205,1.662,0.611c0.685,0.408,1.026,0.953,1.026,1.638
			c0,0.684-0.595,1.694-1.784,3.03c-1.189,1.336-2.387,2.623-3.592,3.861c-1.206,1.239-1.809,2.119-1.809,2.64
			C120.507,33.038,120.686,33.167,121.045,33.167z"/>
		<path d="M143.333,33.167l1.515-0.586c0.456,0,0.685,0.18,0.685,0.538c0,0.848-0.693,1.654-2.077,2.419
			c-1.386,0.766-2.705,1.149-3.959,1.149c-1.255,0-2.224-0.269-2.908-0.807s-1.026-1.36-1.026-2.468
			c0-1.107,0.635-2.476,1.906-4.106c0.162-0.162,0.244-0.301,0.244-0.415c0-0.114-0.065-0.171-0.195-0.171
			c-0.131,0-0.244,0.032-0.343,0.097c-0.098,0.066-0.798,0.506-2.102,1.32c-3.128,1.988-5.359,3.373-6.696,4.155
			c-0.554,0.293-1.075,0.44-1.563,0.44c-0.489,0-1.026-0.31-1.613-0.929c-0.586-0.619-0.88-1.238-0.88-1.857
			c0-1.303,1.841-3.69,5.523-7.161c3.682-3.47,6.175-5.205,7.478-5.205c0.489,0.065,0.912,0.342,1.271,0.831
			c0.358,0.489,0.537,1.067,0.537,1.735c0,0.668-0.244,1.393-0.732,2.175c-0.718,1.141-1.295,1.93-1.735,2.37
			c-0.44,0.44-0.66,0.717-0.66,0.831c0,0.115,0.049,0.171,0.147,0.171c0.098,0,0.235-0.056,0.415-0.171
			c0.179-0.114,1.727-1.124,4.643-3.03s4.554-2.965,4.912-3.177c0.358-0.211,0.75-0.318,1.174-0.318
			c0.423,0,0.978,0.205,1.662,0.611c0.684,0.408,1.025,0.953,1.025,1.638c0,0.684-0.595,1.694-1.784,3.03
			c-1.189,1.336-2.387,2.623-3.592,3.861c-1.206,1.239-1.809,2.119-1.809,2.64C142.794,33.038,142.973,33.167,143.333,33.167z"/>
		<path d="M161.221,33.412c0,0.163,0.113,0.277,0.342,0.342c0.228,0,1.018-0.464,2.37-1.394c1.353-0.928,2.118-1.441,2.298-1.539
			c0.179-0.098,0.35-0.146,0.513-0.146c0.456,0,0.685,0.219,0.685,0.66c0,0.44-1.148,1.41-3.446,2.908
			c-2.297,1.498-3.918,2.248-4.863,2.248c-0.391,0-0.806-0.163-1.246-0.489c-0.439-0.326-0.659-0.709-0.659-1.148
			c0-0.44,0.113-0.92,0.342-1.442c0.228-0.521,0.342-0.872,0.342-1.051c0-0.178-0.049-0.269-0.146-0.269s-0.195,0.033-0.293,0.098
			c-3.161,2.379-5.491,3.568-6.989,3.568c-0.848,0-1.516-0.31-2.004-0.928c-0.489-0.619-0.782-1.238-0.88-1.857l-0.098-0.929
			c0-1.075,0.415-2.321,1.246-3.739c0.831-1.417,1.923-2.769,3.274-4.057c1.352-1.287,3.014-2.37,4.985-3.25
			c1.972-0.879,3.984-1.319,6.036-1.319c1.107,0,2.143,0.293,3.104,0.879c0.961,0.587,1.441,1.271,1.441,2.053
			s-0.766,1.254-2.297,1.417c-1.142,0.261-3.023,1.197-5.646,2.81c-2.623,1.613-3.935,2.844-3.935,3.69
			c0,0.359,0.179,0.538,0.538,0.538c0.651,0,2.19-0.929,4.618-2.786c2.427-1.857,3.886-2.786,4.374-2.786
			c0.489,0,0.733,0.293,0.733,0.879c0,0.424-0.154,0.824-0.464,1.198c-0.311,0.375-0.53,0.644-0.66,0.807
			c-0.261,0.326-0.928,1.05-2.004,2.175C161.758,31.677,161.221,32.63,161.221,33.412z"/>
	</g>
	<g>
		<path d="M17.233,72.873c0-2.802,0.749-5.726,2.248-8.773c1.499-3.046,3.404-5.792,5.719-8.235
			c2.313-2.444,4.789-4.675,7.429-6.696c2.64-2.02,5.173-3.584,7.601-4.692c2.427-1.107,4.406-1.662,5.938-1.662
			c0.587,0,1.229,0.229,1.931,0.685c0.7,0.457,1.051,0.986,1.051,1.588c0,0.604-0.604,1.728-1.809,3.372
			c-1.206,1.646-2.663,3.512-4.374,5.597c-1.711,2.086-3.43,4.236-5.157,6.452c-1.727,2.216-3.193,4.399-4.398,6.55
			c-1.206,2.15-1.808,3.894-1.808,5.229c0,0.521,0.26,0.782,0.781,0.782c0.978,0,2.476-0.985,4.497-2.957
			c2.02-1.971,4.26-4.366,6.721-7.185c2.459-2.818,5.017-5.637,7.673-8.456c2.655-2.818,5.393-5.213,8.212-7.185
			c2.817-1.971,5.303-2.957,7.453-2.957c0.619,0,1.271,0.171,1.955,0.513s1.026,0.717,1.026,1.124c0,0.408-0.18,0.726-0.537,0.953
			c-0.359,0.228-0.971,0.554-1.833,0.978c-0.864,0.424-1.899,0.97-3.104,1.637c-1.205,0.668-2.785,1.71-4.74,3.128
			c-1.955,1.417-4.074,3.087-6.354,5.01c-5.442,4.594-11.65,10.818-18.623,18.671c-2.803,3.127-6.582,4.692-11.339,4.692h-0.049
			c-1.435,0-2.794-0.904-4.081-2.712C17.973,76.515,17.298,74.698,17.233,72.873z"/>
		<path d="M54.72,77.125c0,0.163,0.114,0.277,0.342,0.342c0.228,0,1.019-0.464,2.371-1.394c1.352-0.928,2.118-1.441,2.297-1.539
			c0.179-0.098,0.35-0.146,0.514-0.146c0.456,0,0.684,0.219,0.684,0.66c0,0.44-1.148,1.41-3.445,2.908
			c-2.298,1.498-3.918,2.248-4.863,2.248c-0.391,0-0.807-0.163-1.246-0.489c-0.44-0.326-0.66-0.709-0.66-1.148
			c0-0.44,0.113-0.92,0.343-1.442c0.227-0.521,0.342-0.872,0.342-1.051c0-0.178-0.049-0.269-0.146-0.269
			c-0.099,0-0.195,0.033-0.294,0.098c-3.161,2.379-5.49,3.568-6.989,3.568c-0.848,0-1.515-0.31-2.004-0.928
			c-0.488-0.619-0.781-1.238-0.88-1.857l-0.098-0.929c0-1.075,0.416-2.321,1.246-3.739c0.831-1.417,1.923-2.769,3.275-4.057
			c1.352-1.287,3.014-2.37,4.985-3.25c1.971-0.879,3.983-1.319,6.036-1.319c1.107,0,2.142,0.293,3.104,0.879
			c0.961,0.586,1.442,1.271,1.442,2.053s-0.767,1.254-2.298,1.417c-1.141,0.261-3.022,1.197-5.645,2.81
			c-2.624,1.613-3.936,2.844-3.936,3.69c0,0.359,0.18,0.538,0.538,0.538c0.651,0,2.191-0.929,4.619-2.786
			c2.427-1.857,3.885-2.786,4.374-2.786c0.488,0,0.733,0.293,0.733,0.879c0,0.424-0.155,0.823-0.464,1.198
			c-0.311,0.375-0.53,0.644-0.66,0.807c-0.262,0.326-0.929,1.05-2.004,2.175C55.258,75.391,54.72,76.344,54.72,77.125z
			 M70.605,56.255c0.163,0.424,0.245,0.766,0.245,1.027c0,0.782-0.522,1.417-1.564,1.906c-1.043,0.489-2.086,0.783-3.128,0.88
			l-1.564,0.147c-0.814,0.13-2.15,0.684-4.008,1.662l-0.88,0.44c-0.293-0.163-0.439-0.374-0.439-0.635
			c0-1.042,1.091-2.427,3.274-4.154c2.183-1.727,3.976-2.591,5.377-2.591C69.318,54.936,70.214,55.375,70.605,56.255z"/>
		<path d="M68.845,71.896c-1.368,0-2.615-0.309-3.739-0.928c-1.124-0.619-1.686-1.564-1.686-2.835c0-1.661,1.173-3.095,3.519-4.301
			c2.346-1.205,4.773-1.809,7.282-1.809c1.564,0,2.836,0.286,3.813,0.855c0.978,0.571,1.457,1.417,1.441,2.542
			c-0.018,1.124-0.864,2.135-2.542,3.03c-1.679,0.896-2.794,1.344-3.348,1.344c-0.555,0-0.831-0.114-0.831-0.342
			c0-0.228,0.105-0.398,0.317-0.513c0.212-0.113,0.676-0.333,1.394-0.66c0.716-0.325,1.237-0.594,1.563-0.807
			c0.326-0.211,0.489-0.383,0.489-0.513s-0.146-0.196-0.439-0.196c-1.076,0-2.762,0.383-5.06,1.149
			c-2.297,0.766-3.445,1.393-3.445,1.881c0,0.293,0.651,0.44,1.955,0.44c3.226,0,4.839,1.288,4.839,3.861
			c0,1.141-0.685,2.175-2.053,3.104c-1.369,0.929-2.771,1.589-4.204,1.979c-1.434,0.391-2.583,0.587-3.445,0.587
			c-0.863,0-1.817-0.392-2.859-1.173c-1.043-0.782-1.564-1.564-1.564-2.346s1.026-1.352,3.079-1.71
			c0.912-0.13,2.118-0.432,3.617-0.905c1.498-0.471,2.248-0.92,2.248-1.344C69.187,72.026,69.073,71.896,68.845,71.896z"/>
		<path d="M81.626,68.107c1.645-0.96,3.339-1.735,5.083-2.321c1.742-0.587,3.274-0.88,4.595-0.88c1.319,0,2.402,0.399,3.25,1.198
			c0.847,0.798,1.271,1.499,1.271,2.102c0,0.603-1.401,1.166-4.203,1.686c-1.206,0.229-2.893,1.011-5.059,2.346
			c-2.168,1.336-3.251,2.379-3.251,3.128c0,0.326,0.163,0.489,0.489,0.489c1.173,0,3.91-1.401,8.211-4.204
			c0.228-0.13,0.472-0.31,0.733-0.538c0.489-0.423,0.838-0.635,1.051-0.635c0.212,0,0.398,0.122,0.563,0.367
			c0.162,0.244,0.244,0.489,0.244,0.733c0,0.245-0.155,0.538-0.465,0.88s-2.191,2.558-5.645,6.647
			c-3.454,4.089-5.336,6.305-5.646,6.647c-0.311,0.342-1.246,1.539-2.811,3.592c-1.728,2.28-2.591,3.469-2.591,3.569
			c0,0.097,0.081,0.145,0.245,0.145c0.162,0,0.7-0.285,1.613-0.855c0.911-0.569,1.481-0.871,1.71-0.903
			c0.489,0.032,0.733,0.244,0.733,0.636c0,0.878-1.108,2.035-3.324,3.469c-2.216,1.434-3.812,2.152-4.789,2.152
			s-1.776-0.319-2.396-0.955c-0.618-0.634-0.944-1.352-0.978-2.15c-0.032-0.798,0.465-1.93,1.491-3.396
			c1.026-1.467,1.988-2.697,2.883-3.69c0.896-0.994,2.005-2.086,3.324-3.275c1.319-1.19,2.484-2.208,3.494-3.055
			c2.542-2.085,4.04-3.275,4.497-3.568c0.325-0.228,0.489-0.398,0.489-0.513c0-0.114-0.058-0.171-0.171-0.171
			c-0.115,0-1.044,0.473-2.786,1.417c-1.744,0.945-3.048,1.417-3.91,1.417c-0.864,0-1.72-0.367-2.566-1.1
			c-0.848-0.733-1.271-1.555-1.271-2.468c0-1.466,0.569-2.916,1.71-4.35C78.587,70.267,79.981,69.069,81.626,68.107z"/>
		<path d="M118.601,71.7c0.456,0,0.685,0.245,0.685,0.733s-0.717,1.344-2.15,2.566c-1.435,1.222-3.137,2.354-5.107,3.396
			c-1.973,1.042-3.593,1.564-4.863,1.564c-1.598,0-2.396-0.863-2.396-2.59c0-0.423,0.163-0.887,0.489-1.393
			c0.325-0.505,0.488-0.79,0.488-0.855c0-0.196-0.114-0.293-0.342-0.293c-0.229,0-0.384,0.017-0.464,0.049
			c-0.082,0.032-0.645,0.359-1.687,0.978c-2.966,1.825-4.855,2.737-5.67,2.737c-0.815,0-1.523-0.269-2.126-0.807
			c-0.604-0.538-0.904-1.148-0.904-1.833c0-1.368,0.489-2.769,1.467-4.203c0.978-1.434,2.102-2.64,3.372-3.617
			s2.451-1.775,3.543-2.395c1.092-0.619,1.833-0.929,2.224-0.929c0.392,0,0.881,0.277,1.467,0.831
			c0.587,0.555,0.88,1.083,0.88,1.588c0,0.505-0.18,0.904-0.538,1.198c-2.411,2.118-3.616,3.584-3.616,4.398
			c0,0.424,0.195,0.635,0.586,0.635c0.945,0,2.298-0.773,4.058-2.321c1.759-1.547,3.192-2.957,4.301-4.228
			c0.88-0.912,1.646-1.369,2.297-1.369s1.296,0.237,1.931,0.709c0.636,0.473,0.954,0.896,0.954,1.271
			c0,0.375-0.083,0.701-0.245,0.978c-0.164,0.277-0.815,1.141-1.955,2.591c-1.142,1.45-1.866,2.37-2.175,2.761
			c-0.311,0.391-0.465,0.717-0.465,0.978c0,0.261,0.065,0.391,0.196,0.391c0.13,0,0.252-0.008,0.366-0.024
			c0.114-0.016,0.521-0.269,1.222-0.758c0.7-0.489,1.442-1.026,2.224-1.613C117.656,72.075,118.308,71.7,118.601,71.7z"/>
		<path d="M126.226,69.598l2.394-0.244c1.107,0,1.663,0.555,1.663,1.662c0,0.586-0.538,1.238-1.613,1.955
			c-1.075,0.717-2.159,1.377-3.25,1.979c-1.093,0.604-1.638,1.068-1.638,1.394c0,0.228,0.26,0.375,0.782,0.439
			c1.141,0,3.307-0.912,6.5-2.737c3.194-1.825,4.904-2.737,5.132-2.737c0.456,0,0.686,0.229,0.686,0.685
			c-0.033,0.326-1.068,1.132-3.104,2.419c-2.037,1.287-4.416,2.525-7.136,3.714c-2.722,1.189-4.799,1.784-6.231,1.784
			c-2.249,0-3.373-1.189-3.373-3.568c0-0.685,0.464-1.434,1.394-2.249c0.928-0.814,1.856-1.515,2.786-2.102
			c0.928-0.587,1.393-0.954,1.393-1.1s-0.229-0.318-0.685-0.513c-1.369-0.586-2.053-1.368-2.053-2.346
			c0-1.825,1.522-3.56,4.57-5.206c3.046-1.645,5.872-2.468,8.479-2.468c1.434,0,2.623,0.269,3.568,0.806
			c0.945,0.538,1.417,1.353,1.417,2.444c0,1.092-0.758,2.11-2.272,3.055c-1.516,0.946-2.599,1.418-3.25,1.418
			c-0.261,0-0.498-0.065-0.71-0.196c-0.212-0.13-0.316-0.276-0.316-0.439s0.446-0.432,1.344-0.807
			c0.896-0.375,1.345-0.725,1.345-1.051c0-0.163-0.237-0.245-0.709-0.245c-0.474,0-2.012,0.513-4.619,1.54
			c-2.607,1.027-3.91,1.752-3.91,2.175C124.808,69.42,125.281,69.598,126.226,69.598z"/>
		<path d="M142.403,63.978c0.294,0,1.222-0.236,2.786-0.708c1.563-0.472,2.664-0.708,3.3-0.708c0.635,0,1.245,0.163,1.832,0.489
			s0.88,0.782,0.88,1.368c0,0.587-0.359,1.222-1.075,1.906c-0.717,0.684-1.646,1.483-2.785,2.395
			c-1.143,0.913-2.185,1.735-3.129,2.468c-0.946,0.733-1.466,1.157-1.564,1.271c-0.098,0.114-0.146,0.252-0.146,0.415
			c0,0.164,0.13,0.245,0.391,0.245c1.467-0.228,2.314-0.342,2.542-0.342c0.912,0,1.873,0.31,2.885,0.929
			c1.009,0.62,1.515,1.369,1.515,2.248c0,0.457-0.188,0.848-0.563,1.173c-0.375,0.326-1.06,0.521-2.053,0.586
			c-0.994,0.065-2.876,0.497-5.646,1.295c-2.77,0.798-4.398,1.198-4.888,1.198c-0.488,0-1.141-0.293-1.955-0.88
			c-0.814-0.586-1.222-1.107-1.222-1.564c0-0.749,0.961-1.833,2.884-3.25c1.922-1.417,3.323-2.362,4.203-2.835
			c0.881-0.471,1.751-1.018,2.615-1.637c0.862-0.619,1.295-1.026,1.295-1.222s-0.041-0.293-0.122-0.293
			c-0.082,0-0.563,0.13-1.441,0.391c-0.88,0.261-1.662,0.391-2.347,0.391s-1.361-0.261-2.028-0.782
			c-0.668-0.521-1.001-1.247-1.001-2.175s0.87-2.118,2.614-3.568c1.742-1.449,3.152-2.175,4.229-2.175
			c0.39,0,0.586,0.212,0.586,0.635c0,0.228-0.212,0.489-0.636,0.782c-1.597,0.945-2.395,1.508-2.395,1.687
			C141.963,63.888,142.11,63.978,142.403,63.978z"/>
	</g>
</g>
</svg>
