<?xml version="1.0" encoding="utf-8"?>
<!-- Generator: Adobe Illustrator 16.0.0, SVG Export Plug-In . SVG Version: 6.00 Build 0)  -->
<!DOCTYPE svg PUBLIC "-//W3C//DTD SVG 1.1//EN" "http://www.w3.org/Graphics/SVG/1.1/DTD/svg11.dtd" [
	<!ENTITY ns_flows "http://ns.adobe.com/Flows/1.0/">
	<!ENTITY ns_extend "http://ns.adobe.com/Extensibility/1.0/">
	<!ENTITY ns_ai "http://ns.adobe.com/AdobeIllustrator/10.0/">
	<!ENTITY ns_graphs "http://ns.adobe.com/Graphs/1.0/">
]>
<svg version="1.1" id="Capa_1" xmlns:x="&ns_extend;" xmlns:i="&ns_ai;" xmlns:graph="&ns_graphs;"
	 xmlns="http://www.w3.org/2000/svg" xmlns:xlink="http://www.w3.org/1999/xlink" xmlns:a="http://ns.adobe.com/AdobeSVGViewerExtensions/3.0/"
	 x="0px" y="0px" width="313.443px" height="56px" viewBox="0 0 313.443 56" enable-background="new 0 0 313.443 56"
	 xml:space="preserve">
<g>
	<path fill="#FFFFFF" d="M48.761,10.553c0,3.246-2.919,8.378-8.755,15.395c2.098,1.443,3.147,2.705,3.147,3.788
		c0,0.721-0.344,1.164-1.033,1.328c-3.214,0.787-6.443,1.804-9.689,3.049c-4.82,4.722-9.575,8.64-14.264,11.756
		c-4.689,3.115-8.477,4.672-11.362,4.672c-1.213,0-2.279-0.631-3.197-1.894c-0.918-1.262-1.377-2.533-1.377-3.812
		c0-2.361,0.829-4.64,2.484-6.837c1.656-2.196,3.762-4.082,6.32-5.656c2.558-1.574,5.344-2.967,8.362-4.181
		c5.967-2.394,11.264-3.59,15.887-3.59c0.394,0,0.951,0.033,1.672,0.098c4.754-5.147,7.132-8.574,7.132-10.279
		c0-0.787-0.559-1.181-1.673-1.181c-1.541,0-3.73,0.5-6.566,1.5c-2.837,1.001-5.37,2.148-7.599,3.443
		c-2.23,1.296-3.345,2.304-3.345,3.025c0,0.229,0.36,0.344,1.082,0.344l3.836-0.492c0.885,0,1.328,0.295,1.328,0.885
		c0,0.656-0.681,1.197-2.042,1.623c-1.361,0.426-2.648,0.639-3.861,0.639c-2.591,0-4.845-0.615-6.763-1.844
		c-1.918-1.23-2.878-2.926-2.878-5.091c0-1.803,1.369-3.812,4.107-6.025c2.737-2.213,6.074-4.083,10.009-5.607
		c3.935-1.524,7.345-2.287,10.23-2.287C45.826,3.322,48.761,5.732,48.761,10.553z M10.003,47.294c0,0.099,0.065,0.148,0.197,0.148
		c0.754,0,2.353-0.894,4.795-2.681c2.442-1.788,5.254-4.091,8.436-6.911c-3.935,1.869-7.156,3.664-9.665,5.386
		C11.257,44.958,10.003,46.311,10.003,47.294z"/>
	<path fill="#FFFFFF" d="M56.385,25.751c0,0.885,0.524,1.328,1.574,1.328c0.984,0,2.066-0.246,3.246-0.738
		c1.181-0.492,1.82-0.738,1.918-0.738s0.205,0.082,0.32,0.246c0.114,0.165,0.172,0.328,0.172,0.492c0,0.361-0.762,0.829-2.287,1.401
		c-1.524,0.575-2.631,0.861-3.32,0.861s-1.173-0.008-1.451-0.024c-0.279-0.016-0.5,0.156-0.665,0.516
		c-2.427,4.559-4.837,7.427-7.23,8.607c-1.049,0.525-2.156,0.788-3.32,0.788s-2.115-0.386-2.853-1.156
		c-0.738-0.77-1.107-1.992-1.107-3.664c0-2.328,0.762-4.5,2.288-6.517c1.524-2.017,3.253-3.533,5.189-4.549
		c1.934-1.017,3.689-1.525,5.263-1.525c2.656,0.295,3.984,1.099,3.984,2.41c0,0.361-0.091,0.681-0.271,0.959
		c-0.181,0.279-0.328,0.442-0.443,0.492c-0.115,0.049-0.254,0.09-0.417,0.123C56.582,25.161,56.385,25.391,56.385,25.751z
		 M52.351,28.014c-1.049,0.787-2.074,1.787-3.074,3c-1,1.213-1.5,2.206-1.5,2.976c0,0.771,0.213,1.156,0.64,1.156
		c0.656,0,1.861-1.009,3.615-3.025c1.754-2.017,2.631-3.68,2.631-4.993c0-0.196-0.123-0.295-0.369-0.295
		C54.048,26.833,53.4,27.227,52.351,28.014z"/>
	<path fill="#FFFFFF" d="M81.297,35.096c-1.165,0.885-2.558,1.738-4.181,2.558c-1.623,0.819-2.984,1.229-4.083,1.229
		c-1.099,0-1.976-0.328-2.631-0.983c-0.657-0.656-0.983-1.459-0.983-2.41c0-1.574,1.131-3.689,3.393-6.345
		c0.197-0.197,0.295-0.352,0.295-0.467c0-0.115-0.033-0.172-0.098-0.172c-0.066,0-0.304,0.074-0.713,0.221
		c-0.41,0.148-1.533,0.902-3.369,2.263c-1.836,1.361-3.624,2.804-5.361,4.328c-1.738,1.525-2.976,2.288-3.713,2.288
		s-1.279-0.312-1.623-0.935c-0.344-0.622-0.517-1.328-0.517-2.115c0-2.426,1.894-6.115,5.681-11.067
		c3.787-4.951,7.747-9.37,11.878-13.255c4.132-3.886,6.771-5.828,7.919-5.828c0.557,0,1.089,0.238,1.598,0.712
		c0.508,0.476,0.762,1.116,0.762,1.918c0,0.804-0.983,2.583-2.951,5.336c-1.968,2.755-4.165,5.657-6.591,8.706
		c-3.05,3.804-4.574,5.87-4.574,6.198c0,0.131,0.065,0.196,0.197,0.196c0.131,0,0.688-0.27,1.672-0.811
		c0.983-0.542,2.049-1.049,3.197-1.525c1.147-0.475,1.943-0.754,2.386-0.836c0.442-0.081,0.967-0.123,1.574-0.123
		s1.213,0.132,1.82,0.394c0.607,0.263,0.911,0.647,0.911,1.156s-1.189,2.131-3.566,4.869c-2.378,2.738-3.566,4.296-3.566,4.673
		c0,0.377,0.164,0.565,0.492,0.565c0.688,0,2.033-0.721,4.033-2.164c0.754-0.524,1.197-0.819,1.328-0.886
		c0.13-0.065,0.278-0.098,0.443-0.098c0.458,0,0.688,0.229,0.688,0.688C83.043,33.637,82.461,34.211,81.297,35.096z"/>
	<path fill="#FFFFFF" d="M95.88,35.44c0,0.165,0.114,0.279,0.344,0.345c0.229,0,1.024-0.468,2.386-1.402
		c1.36-0.934,2.131-1.451,2.312-1.549c0.18-0.099,0.352-0.147,0.517-0.147c0.458,0,0.688,0.221,0.688,0.664
		s-1.155,1.419-3.467,2.927s-3.943,2.262-4.894,2.262c-0.394,0-0.812-0.164-1.254-0.492c-0.442-0.328-0.664-0.713-0.664-1.156
		c0-0.443,0.114-0.926,0.344-1.451c0.229-0.524,0.344-0.877,0.344-1.058c0-0.18-0.049-0.271-0.147-0.271
		c-0.099,0-0.197,0.033-0.295,0.099c-3.181,2.394-5.526,3.59-7.034,3.59c-0.853,0-1.525-0.312-2.017-0.934
		c-0.492-0.623-0.787-1.246-0.885-1.87l-0.099-0.934c0-1.082,0.418-2.336,1.254-3.763c0.836-1.426,1.935-2.787,3.296-4.083
		c1.36-1.295,3.033-2.385,5.017-3.271c1.984-0.885,4.009-1.328,6.074-1.328c1.115,0,2.156,0.295,3.124,0.885
		c0.967,0.59,1.451,1.278,1.451,2.066c0,0.787-0.771,1.262-2.312,1.426c-1.148,0.263-3.042,1.206-5.681,2.829
		c-2.64,1.623-3.959,2.861-3.959,3.713c0,0.361,0.18,0.541,0.541,0.541c0.656,0,2.205-0.935,4.648-2.804
		c2.442-1.869,3.91-2.804,4.401-2.804c0.492,0,0.738,0.295,0.738,0.885c0,0.427-0.155,0.829-0.467,1.206
		c-0.312,0.377-0.534,0.648-0.664,0.812c-0.263,0.328-0.935,1.057-2.017,2.189C96.421,33.694,95.88,34.654,95.88,35.44z"/>
	<path fill="#FFFFFF" d="M120.08,35.195l1.524-0.59c0.458,0,0.688,0.18,0.688,0.541c0,0.853-0.697,1.665-2.09,2.435
		c-1.394,0.771-2.722,1.156-3.984,1.156c-1.263,0-2.238-0.27-2.927-0.812c-0.688-0.541-1.033-1.369-1.033-2.484
		c0-1.114,0.639-2.491,1.918-4.132c0.163-0.163,0.246-0.302,0.246-0.418c0-0.114-0.066-0.172-0.197-0.172
		c-0.131,0-0.246,0.033-0.344,0.098c-0.099,0.066-0.804,0.509-2.115,1.328c-3.148,2-5.394,3.394-6.738,4.181
		c-0.558,0.295-1.082,0.443-1.574,0.443c-0.492,0-1.033-0.311-1.623-0.935c-0.59-0.623-0.885-1.246-0.885-1.869
		c0-1.311,1.853-3.713,5.558-7.206c3.705-3.492,6.213-5.238,7.525-5.238c0.492,0.066,0.918,0.345,1.279,0.836
		c0.36,0.492,0.541,1.074,0.541,1.746s-0.246,1.401-0.738,2.188c-0.721,1.148-1.303,1.943-1.746,2.386s-0.664,0.721-0.664,0.836
		c0,0.115,0.049,0.172,0.147,0.172c0.098,0,0.237-0.057,0.418-0.172c0.18-0.115,1.738-1.131,4.672-3.049s4.582-2.983,4.943-3.197
		c0.361-0.213,0.754-0.32,1.181-0.32c0.426,0,0.984,0.206,1.673,0.615c0.688,0.411,1.033,0.959,1.033,1.648
		c0,0.688-0.599,1.705-1.795,3.05c-1.197,1.345-2.402,2.64-3.615,3.885c-1.213,1.247-1.82,2.132-1.82,2.656
		C119.538,35.064,119.718,35.195,120.08,35.195z"/>
	<path fill="#FFFFFF" d="M142.508,35.195l1.524-0.59c0.459,0,0.689,0.18,0.689,0.541c0,0.853-0.697,1.665-2.09,2.435
		c-1.395,0.771-2.723,1.156-3.984,1.156c-1.263,0-2.238-0.27-2.927-0.812c-0.688-0.541-1.033-1.369-1.033-2.484
		c0-1.114,0.64-2.491,1.918-4.132c0.164-0.163,0.246-0.302,0.246-0.418c0-0.114-0.066-0.172-0.197-0.172
		c-0.132,0-0.246,0.033-0.345,0.098c-0.099,0.066-0.804,0.509-2.115,1.328c-3.148,2-5.394,3.394-6.739,4.181
		c-0.558,0.295-1.082,0.443-1.574,0.443c-0.492,0-1.033-0.311-1.623-0.935c-0.59-0.623-0.885-1.246-0.885-1.869
		c0-1.311,1.852-3.713,5.558-7.206s6.214-5.238,7.525-5.238c0.492,0.066,0.918,0.345,1.279,0.836
		c0.36,0.492,0.541,1.074,0.541,1.746s-0.246,1.401-0.738,2.188c-0.721,1.148-1.303,1.943-1.746,2.386s-0.664,0.721-0.664,0.836
		c0,0.115,0.049,0.172,0.147,0.172c0.099,0,0.237-0.057,0.418-0.172c0.18-0.115,1.738-1.131,4.673-3.049
		c2.934-1.918,4.582-2.983,4.943-3.197c0.361-0.213,0.754-0.32,1.181-0.32c0.425,0,0.984,0.206,1.672,0.615
		c0.688,0.411,1.033,0.959,1.033,1.648c0,0.688-0.599,1.705-1.795,3.05s-2.402,2.64-3.615,3.885c-1.213,1.247-1.82,2.132-1.82,2.656
		C141.966,35.064,142.146,35.195,142.508,35.195z"/>
	<path fill="#FFFFFF" d="M160.509,35.44c0,0.165,0.115,0.279,0.344,0.345c0.229,0,1.024-0.468,2.386-1.402
		c1.36-0.934,2.131-1.451,2.312-1.549c0.18-0.099,0.352-0.147,0.516-0.147c0.458,0,0.688,0.221,0.688,0.664
		s-1.156,1.419-3.468,2.927c-2.312,1.508-3.943,2.262-4.894,2.262c-0.393,0-0.811-0.164-1.254-0.492
		c-0.442-0.328-0.664-0.713-0.664-1.156c0-0.443,0.114-0.926,0.345-1.451c0.229-0.524,0.344-0.877,0.344-1.058
		c0-0.18-0.049-0.271-0.147-0.271s-0.196,0.033-0.295,0.099c-3.181,2.394-5.526,3.59-7.033,3.59c-0.854,0-1.525-0.312-2.017-0.934
		s-0.787-1.246-0.885-1.87l-0.099-0.934c0-1.082,0.418-2.336,1.254-3.763s1.935-2.787,3.295-4.083
		c1.36-1.295,3.033-2.385,5.017-3.271c1.984-0.885,4.009-1.328,6.074-1.328c1.114,0,2.156,0.295,3.124,0.885
		c0.967,0.59,1.451,1.278,1.451,2.066c0,0.787-0.771,1.262-2.312,1.426c-1.148,0.263-3.042,1.206-5.681,2.829
		c-2.64,1.623-3.96,2.861-3.96,3.713c0,0.361,0.18,0.541,0.542,0.541c0.655,0,2.205-0.935,4.648-2.804
		c2.442-1.869,3.91-2.804,4.402-2.804c0.492,0,0.738,0.295,0.738,0.885c0,0.427-0.156,0.829-0.467,1.206
		c-0.313,0.377-0.534,0.648-0.665,0.812c-0.263,0.328-0.934,1.057-2.017,2.189C161.05,33.694,160.509,34.654,160.509,35.44z"/>
	<path fill="#FFFFFF" d="M176.396,31.161c0-2.819,0.754-5.762,2.262-8.829c1.508-3.065,3.426-5.829,5.755-8.288
		c2.328-2.459,4.82-4.705,7.476-6.739c2.656-2.033,5.206-3.606,7.648-4.722c2.442-1.114,4.435-1.672,5.976-1.672
		c0.59,0,1.237,0.23,1.943,0.689c0.705,0.459,1.058,0.992,1.058,1.599s-0.607,1.738-1.82,3.393c-1.213,1.656-2.68,3.534-4.401,5.632
		c-1.722,2.099-3.452,4.263-5.189,6.493c-1.738,2.23-3.214,4.427-4.427,6.591c-1.213,2.164-1.82,3.918-1.82,5.262
		c0,0.525,0.262,0.788,0.787,0.788c0.983,0,2.491-0.992,4.525-2.976c2.033-1.984,4.287-4.394,6.763-7.23
		c2.475-2.836,5.049-5.673,7.722-8.509c2.672-2.836,5.426-5.246,8.263-7.23c2.836-1.983,5.337-2.976,7.5-2.976
		c0.623,0,1.28,0.172,1.968,0.517c0.688,0.344,1.034,0.721,1.034,1.131s-0.181,0.73-0.542,0.959
		c-0.361,0.229-0.976,0.558-1.844,0.984c-0.869,0.426-1.91,0.976-3.124,1.647c-1.212,0.672-2.803,1.721-4.771,3.148
		c-1.967,1.426-4.099,3.107-6.394,5.042c-5.477,4.623-11.723,10.887-18.74,18.789c-2.821,3.147-6.624,4.722-11.411,4.722h-0.049
		c-1.443,0-2.812-0.91-4.106-2.73C177.141,34.826,176.462,32.998,176.396,31.161z"/>
	<path fill="#FFFFFF" d="M214.121,35.44c0,0.165,0.115,0.279,0.344,0.345c0.229,0,1.024-0.468,2.386-1.402
		c1.359-0.934,2.132-1.451,2.312-1.549c0.179-0.099,0.352-0.147,0.515-0.147c0.459,0,0.69,0.221,0.69,0.664
		s-1.157,1.419-3.468,2.927s-3.943,2.262-4.894,2.262c-0.393,0-0.811-0.164-1.254-0.492c-0.442-0.328-0.664-0.713-0.664-1.156
		c0-0.443,0.114-0.926,0.345-1.451c0.229-0.524,0.344-0.877,0.344-1.058c0-0.18-0.049-0.271-0.147-0.271s-0.196,0.033-0.295,0.099
		c-3.181,2.394-5.526,3.59-7.034,3.59c-0.853,0-1.525-0.312-2.017-0.934s-0.787-1.246-0.885-1.87l-0.099-0.934
		c0-1.082,0.418-2.336,1.254-3.763s1.935-2.787,3.295-4.083c1.36-1.295,3.033-2.385,5.017-3.271
		c1.984-0.885,4.009-1.328,6.074-1.328c1.114,0,2.156,0.295,3.123,0.885c0.968,0.59,1.453,1.278,1.453,2.066
		c0,0.787-0.772,1.262-2.313,1.426c-1.147,0.263-3.041,1.206-5.68,2.829c-2.64,1.623-3.96,2.861-3.96,3.713
		c0,0.361,0.18,0.541,0.542,0.541c0.655,0,2.205-0.935,4.648-2.804c2.442-1.869,3.91-2.804,4.402-2.804
		c0.492,0,0.738,0.295,0.738,0.885c0,0.427-0.156,0.829-0.467,1.206c-0.313,0.377-0.534,0.648-0.665,0.812
		c-0.263,0.328-0.934,1.057-2.017,2.189C214.662,33.694,214.121,34.654,214.121,35.44z M230.106,14.438
		c0.164,0.427,0.246,0.771,0.246,1.033c0,0.787-0.526,1.426-1.576,1.918c-1.049,0.492-2.098,0.788-3.147,0.885l-1.573,0.148
		c-0.821,0.131-2.166,0.688-4.033,1.672l-0.886,0.443c-0.296-0.164-0.444-0.377-0.444-0.64c0-1.049,1.099-2.442,3.297-4.181
		c2.196-1.738,4-2.607,5.41-2.607C228.81,13.11,229.713,13.553,230.106,14.438z"/>
	<path fill="#FFFFFF" d="M228.335,30.178c-1.376,0-2.631-0.312-3.763-0.935c-1.131-0.623-1.696-1.574-1.696-2.853
		c0-1.672,1.181-3.114,3.541-4.328c2.361-1.213,4.804-1.82,7.329-1.82c1.575,0,2.853,0.288,3.837,0.86
		c0.983,0.575,1.467,1.427,1.451,2.558c-0.017,1.131-0.87,2.148-2.558,3.049c-1.689,0.902-2.812,1.353-3.369,1.353
		c-0.558,0-0.837-0.114-0.837-0.344c0-0.229,0.106-0.401,0.32-0.516c0.213-0.115,0.68-0.336,1.402-0.664
		c0.721-0.328,1.246-0.598,1.574-0.812c0.327-0.213,0.492-0.385,0.492-0.517c0-0.13-0.148-0.197-0.443-0.197
		c-1.083,0-2.779,0.386-5.091,1.156c-2.312,0.77-3.468,1.401-3.468,1.893c0,0.295,0.655,0.443,1.967,0.443
		c3.246,0,4.87,1.295,4.87,3.886c0,1.148-0.689,2.188-2.066,3.124c-1.376,0.934-2.787,1.598-4.23,1.992
		c-1.443,0.394-2.598,0.59-3.467,0.59c-0.869,0-1.829-0.394-2.878-1.181c-1.049-0.787-1.574-1.574-1.574-2.361
		s1.033-1.36,3.099-1.721c0.917-0.131,2.131-0.435,3.639-0.911c1.508-0.474,2.264-0.926,2.264-1.353
		C228.68,30.309,228.565,30.178,228.335,30.178z"/>
	<path fill="#FFFFFF" d="M241.197,26.366c1.655-0.967,3.36-1.746,5.116-2.336c1.753-0.59,3.295-0.885,4.623-0.885
		c1.329,0,2.418,0.402,3.271,1.205c0.852,0.804,1.279,1.509,1.279,2.115c0,0.607-1.41,1.173-4.23,1.697
		c-1.213,0.229-2.91,1.017-5.09,2.361c-2.181,1.345-3.271,2.394-3.271,3.148c0,0.328,0.164,0.492,0.492,0.492
		c1.181,0,3.935-1.41,8.264-4.23c0.229-0.131,0.475-0.311,0.738-0.541c0.492-0.426,0.843-0.639,1.058-0.639
		c0.212,0,0.4,0.123,0.565,0.369c0.164,0.246,0.246,0.492,0.246,0.738c0,0.246-0.155,0.541-0.467,0.885
		c-0.312,0.345-2.206,2.575-5.681,6.689s-5.369,6.345-5.68,6.689c-0.313,0.344-1.255,1.549-2.828,3.615
		c-1.739,2.295-2.607,3.492-2.607,3.59c0,0.099,0.082,0.147,0.246,0.147c0.164,0,0.705-0.287,1.623-0.86
		c0.917-0.574,1.492-0.878,1.722-0.91c0.492,0.032,0.738,0.246,0.738,0.64c0,0.885-1.115,2.049-3.345,3.492
		c-2.23,1.442-3.836,2.164-4.82,2.164s-1.787-0.319-2.41-0.959c-0.623-0.64-0.951-1.361-0.984-2.164
		c-0.033-0.804,0.467-1.943,1.5-3.418c1.034-1.476,2.001-2.714,2.902-3.713c0.902-1,2.016-2.099,3.345-3.296
		c1.328-1.197,2.5-2.222,3.517-3.074c2.557-2.098,4.065-3.295,4.525-3.59c0.328-0.229,0.492-0.401,0.492-0.517
		c0-0.115-0.058-0.172-0.172-0.172c-0.115,0-1.05,0.476-2.804,1.426c-1.754,0.951-3.066,1.426-3.935,1.426
		c-0.868,0-1.729-0.369-2.582-1.106s-1.279-1.565-1.279-2.484c0-1.476,0.574-2.935,1.722-4.377S239.541,27.333,241.197,26.366z"/>
	<path fill="#FFFFFF" d="M278.406,29.981c0.459,0,0.688,0.246,0.688,0.738c0,0.492-0.721,1.353-2.164,2.583
		c-1.443,1.229-3.156,2.369-5.14,3.418c-1.985,1.049-3.615,1.574-4.895,1.574c-1.606,0-2.409-0.869-2.409-2.606
		c0-0.426,0.163-0.893,0.492-1.402c0.327-0.508,0.492-0.795,0.492-0.86c0-0.197-0.115-0.295-0.345-0.295s-0.385,0.017-0.467,0.049
		c-0.083,0.033-0.648,0.361-1.698,0.984c-2.984,1.836-4.886,2.754-5.705,2.754c-0.82,0-1.533-0.271-2.14-0.812
		c-0.607-0.541-0.91-1.156-0.91-1.845c0-1.377,0.492-2.786,1.476-4.229c0.984-1.442,2.114-2.656,3.394-3.64
		c1.279-0.984,2.467-1.787,3.566-2.41c1.098-0.623,1.845-0.935,2.237-0.935c0.394,0,0.886,0.279,1.476,0.836
		c0.591,0.558,0.886,1.09,0.886,1.599c0,0.509-0.181,0.91-0.541,1.205c-2.427,2.132-3.64,3.607-3.64,4.427
		c0,0.427,0.197,0.639,0.59,0.639c0.951,0,2.312-0.778,4.083-2.336s3.213-2.976,4.328-4.255c0.886-0.917,1.656-1.377,2.312-1.377
		c0.655,0,1.304,0.238,1.942,0.713c0.64,0.476,0.96,0.902,0.96,1.279c0,0.377-0.083,0.706-0.246,0.984
		c-0.165,0.279-0.82,1.148-1.967,2.607c-1.149,1.459-1.878,2.385-2.189,2.779c-0.312,0.394-0.467,0.722-0.467,0.984
		c0,0.263,0.065,0.393,0.197,0.393c0.131,0,0.254-0.007,0.369-0.024c0.114-0.016,0.523-0.271,1.229-0.762
		c0.704-0.492,1.451-1.033,2.237-1.623C277.455,30.358,278.111,29.981,278.406,29.981z"/>
	<path fill="#FFFFFF" d="M286.078,27.866l2.411-0.246c1.114,0,1.671,0.558,1.671,1.673c0,0.59-0.541,1.246-1.623,1.967
		c-1.083,0.722-2.173,1.386-3.271,1.992c-1.099,0.607-1.647,1.075-1.647,1.402c0,0.229,0.262,0.377,0.787,0.442
		c1.147,0,3.328-0.917,6.542-2.754c3.212-1.836,4.934-2.754,5.165-2.754c0.458,0,0.688,0.23,0.688,0.688
		c-0.033,0.328-1.074,1.14-3.123,2.435c-2.049,1.295-4.443,2.542-7.181,3.738s-4.828,1.795-6.271,1.795
		c-2.263,0-3.394-1.196-3.394-3.59c0-0.689,0.468-1.443,1.401-2.263c0.935-0.819,1.87-1.525,2.804-2.115
		c0.935-0.59,1.402-0.959,1.402-1.106s-0.23-0.32-0.689-0.517c-1.376-0.59-2.065-1.377-2.065-2.361c0-1.836,1.532-3.582,4.599-5.238
		c3.065-1.655,5.91-2.484,8.534-2.484c1.443,0,2.639,0.271,3.591,0.812c0.95,0.541,1.427,1.361,1.427,2.459
		c0,1.099-0.763,2.124-2.288,3.074c-1.524,0.952-2.616,1.427-3.271,1.427c-0.263,0-0.5-0.065-0.713-0.197
		c-0.214-0.13-0.32-0.278-0.32-0.442c0-0.164,0.451-0.434,1.353-0.812c0.901-0.376,1.353-0.729,1.353-1.057
		c0-0.164-0.238-0.246-0.713-0.246c-0.476,0-2.025,0.517-4.648,1.549c-2.624,1.033-3.935,1.763-3.935,2.188
		C284.652,27.686,285.126,27.866,286.078,27.866z"/>
	<path fill="#FFFFFF" d="M302.358,22.209c0.296,0,1.229-0.237,2.804-0.713c1.573-0.475,2.68-0.713,3.319-0.713
		s1.255,0.165,1.845,0.492s0.886,0.787,0.886,1.377s-0.361,1.229-1.082,1.918c-0.722,0.688-1.656,1.492-2.803,2.41
		c-1.149,0.918-2.198,1.746-3.149,2.484s-1.475,1.164-1.573,1.279c-0.099,0.116-0.147,0.254-0.147,0.418
		c0,0.165,0.13,0.246,0.394,0.246c1.476-0.229,2.328-0.344,2.557-0.344c0.919,0,1.885,0.312,2.903,0.935
		c1.015,0.624,1.523,1.377,1.523,2.262c0,0.46-0.188,0.853-0.564,1.181c-0.379,0.328-1.066,0.525-2.065,0.59
		c-1.001,0.066-2.896,0.5-5.681,1.303c-2.789,0.803-4.427,1.205-4.919,1.205c-0.492,0-1.148-0.295-1.967-0.885
		c-0.82-0.59-1.229-1.114-1.229-1.574c0-0.754,0.966-1.845,2.902-3.271c1.934-1.426,3.344-2.377,4.23-2.853
		c0.886-0.475,1.762-1.024,2.631-1.647c0.867-0.623,1.304-1.033,1.304-1.229c0-0.197-0.042-0.295-0.122-0.295
		c-0.084,0-0.567,0.131-1.451,0.393c-0.886,0.263-1.673,0.394-2.361,0.394c-0.69,0-1.371-0.262-2.042-0.787
		c-0.672-0.524-1.008-1.255-1.008-2.189c0-0.935,0.876-2.131,2.631-3.59c1.755-1.459,3.173-2.189,4.256-2.189
		c0.392,0,0.59,0.214,0.59,0.639c0,0.229-0.214,0.492-0.64,0.787c-1.606,0.951-2.41,1.517-2.41,1.697
		C301.916,22.12,302.062,22.209,302.358,22.209z"/>
</g>
</svg>
